<svg xmlns="http://www.w3.org/2000/svg" width="40" height="40" viewBox="0 0 40 40" fill="none">
    <path d="M29.3585 25.7545C27.707 25.7545 26.2191 26.4442 25.1864 27.5413L15.898 21.978C16.146 21.3641 16.2835 20.6973 16.2835 19.9997C16.2835 19.3018 16.146 18.635 15.898 18.0214L25.1864 12.4578C26.2191 13.5549 27.707 14.2448 29.3585 14.2448C32.4694 14.2448 35.0002 11.7973 35.0002 8.78879C35.0002 5.78026 32.4694 3.33301 29.3585 3.33301C26.2475 3.33301 23.7167 5.78052 23.7167 8.78904C23.7167 9.48662 23.8545 10.1534 24.1022 10.7673L14.8141 16.3307C13.7814 15.2336 12.2935 14.5436 10.642 14.5436C7.53108 14.5436 5.00024 16.9914 5.00024 19.9997C5.00024 23.0082 7.53108 25.4557 10.642 25.4557C12.2935 25.4557 13.7814 24.766 14.8141 23.6687L24.1022 29.232C23.8545 29.8459 23.7167 30.5127 23.7167 31.2106C23.7167 34.2188 26.2475 36.6663 29.3585 36.6663C32.4694 36.6663 35.0002 34.2188 35.0002 31.2106C35.0002 28.202 32.4694 25.7545 29.3585 25.7545ZM25.7739 8.78904C25.7739 6.87762 27.382 5.3225 29.3585 5.3225C31.335 5.3225 32.943 6.87762 32.943 8.78904C32.943 10.7005 31.335 12.2556 29.3585 12.2556C27.382 12.2556 25.7739 10.7005 25.7739 8.78904ZM10.642 23.4662C8.66527 23.4662 7.0572 21.9111 7.0572 19.9997C7.0572 18.0883 8.66527 16.5331 10.642 16.5331C12.6185 16.5331 14.2263 18.0883 14.2263 19.9997C14.2263 21.9111 12.6185 23.4662 10.642 23.4662ZM25.7739 31.2103C25.7739 29.2989 27.382 27.7438 29.3585 27.7438C31.335 27.7438 32.943 29.2989 32.943 31.2103C32.943 33.1217 31.335 34.6769 29.3585 34.6769C27.382 34.6769 25.7739 33.1217 25.7739 31.2103Z" fill="#FF2C20"/>
</svg>